<svg width="19" height="20" viewBox="0 0 19 20" fill="none" xmlns="http://www.w3.org/2000/svg">
<path d="M9.50003 11.6773C10.3878 11.6773 11.1074 10.9263 11.1074 9.99999C11.1074 9.07366 10.3878 8.32272 9.50003 8.32272C8.61229 8.32272 7.89264 9.07366 7.89264 9.99999C7.89264 10.9263 8.61229 11.6773 9.50003 11.6773Z" fill="#2563EB"/>
<path d="M9.5 13.4364C14.2635 13.4364 18.125 11.8978 18.125 10C18.125 8.10215 14.2635 6.56363 9.5 6.56363C4.73654 6.56363 0.875 8.10215 0.875 10C0.875 11.8978 4.73654 13.4364 9.5 13.4364Z" stroke="#2563EB"/>
<path d="M6.64803 11.7182C9.02976 16.0228 12.2374 18.7432 13.8125 17.7942C15.3876 16.8453 14.7337 12.5865 12.352 8.28182C9.97026 3.97719 6.76262 1.25685 5.18751 2.20578C3.61241 3.1547 4.2663 7.41355 6.64803 11.7182Z" stroke="#2563EB"/>
<path d="M6.64803 8.28183C4.2663 12.5865 3.61241 16.8453 5.18751 17.7942C6.76262 18.7432 9.97026 16.0228 12.352 11.7182C14.7337 7.41356 15.3876 3.15471 13.8125 2.20579C12.2374 1.25686 9.02976 3.9772 6.64803 8.28183Z" stroke="#2563EB"/>
</svg>
